<?xml version="1.0" encoding="utf-8"?>
<!-- Generator: Adobe Illustrator 15.0.2, SVG Export Plug-In . SVG Version: 6.00 Build 0)  -->
<!DOCTYPE svg PUBLIC "-//W3C//DTD SVG 1.1//EN" "http://www.w3.org/Graphics/SVG/1.1/DTD/svg11.dtd">
<svg version="1.1" id="Layer_1" xmlns="http://www.w3.org/2000/svg" xmlns:xlink="http://www.w3.org/1999/xlink" x="0px" y="0px"
	 width="512px" height="384px" viewBox="0 0 512 384" enable-background="new 0 0 512 384" xml:space="preserve">
<path d="M44.8,0h422.4C489.588,0,512,22.413,512,44.8v294.4c0,22.388-22.412,44.8-44.8,44.8H44.8C22.413,384,0,361.588,0,339.2V44.8
	C0,22.413,22.413,0,44.8,0z M51.2,307.2c0,16.787,8.812,25.6,25.6,25.6h358.4c16.787,0,25.6-8.812,25.6-25.6V76.8L290,251.6
	c-15.825,15.838-41.494,15.838-57.318,0L51.2,76.8V307.2z M89.6,51.2l150.244,150.25c11.875,11.875,31.119,11.875,42.994,0
	L435.2,51.2H89.6z"/>
</svg>
